<svg width="30" height="30" viewBox="0 0 40 40" fill="none" xmlns="http://www.w3.org/2000/svg">
<path d="M17.6295 9.00371C17.5166 8.85927 17.3962 8.77964 17.2518 8.77964C17.1481 8.78704 17.0518 8.82038 16.9629 8.87593C15.8944 9.71112 14.4407 13.2537 13.2444 17.9278L14.3055 17.9352C16.3944 17.9593 18.5536 17.9833 20.6832 18.0148C20.1203 15.8778 19.5907 14.0463 19.1018 12.5611C18.3851 10.4019 17.9036 9.42964 17.6295 9.00371Z" fill="#1E61F0"/>
<path d="M20 0C8.95555 0 0 8.95555 0 20C0 31.0444 8.95555 40 20 40C31.0444 40 40 31.0444 40 20C40 8.95555 31.0444 0 20 0ZM34.763 19.7593C34.7074 19.9833 34.5704 20.2019 34.3778 20.3611C34.3537 20.3778 34.3296 20.3926 34.3056 20.4093L34.2815 20.4259L34.2333 20.4574L34.1926 20.4815C34.0407 20.5611 33.8704 20.6019 33.6944 20.6019H24.2167C24.2889 20.9148 24.3778 21.2759 24.4648 21.663C24.987 23.9037 26.3611 29.863 27.8296 29.863H27.9093C29.05 29.863 29.637 28.2093 30.9222 24.5852L30.9389 24.5444C31.1481 23.9667 31.3815 23.3074 31.6296 22.6093L31.6944 22.4333C31.7907 22.2 32.0556 22.0796 32.2889 22.1759C32.4574 22.2407 32.5778 22.4093 32.5778 22.5944C32.5778 22.6426 32.5704 22.6833 32.5611 22.7222L32.5056 22.8981C32.3685 23.3315 32.2333 23.9185 32.063 24.6019C31.3 27.7667 30.1426 32.5463 27.187 32.5463H27.163C25.2519 32.5296 24.1111 29.4778 23.6204 28.1685C22.7056 25.7259 22.0148 23.1315 21.3481 20.6111H12.6426L10.8352 26.4019L10.8111 26.3778C10.5389 26.8037 9.96852 26.9315 9.54259 26.6593C9.27778 26.4907 9.11667 26.2019 9.11667 25.8889V25.8574L9.22963 25.1981C9.47778 23.713 9.78333 22.1611 10.1204 20.6037H6.42593L6.40926 20.587C5.6537 20.4741 5.13148 19.7685 5.24444 19.013C5.33333 18.4259 5.78333 17.9611 6.36111 17.8556C6.50556 17.8389 6.65 17.8315 6.79444 17.8389H6.97037C8.13518 17.8556 9.37222 17.8796 10.737 17.8944C12.6574 10.087 14.8815 6.11852 17.3556 6.11111C20.0056 6.11111 21.9741 12.1426 23.5481 18.0463L23.5556 18.0704C26.7852 18.1352 30.2389 18.2315 33.587 18.4722L33.7315 18.4889C33.787 18.4889 33.8352 18.4963 33.8926 18.5056H33.9093L33.9259 18.513H33.9333C34.5056 18.6259 34.8833 19.1889 34.763 19.7593Z" fill="#1E61F0"/>
</svg>
