<svg width="30" height="30" viewBox="0 0 40 40" fill="none" xmlns="http://www.w3.org/2000/svg">
<g clip-path="url(#clip0_20_715)">
<path d="M28.8947 7.53126L17.0498 0.429955C16.5112 0.148706 15.9168 0.00222778 15.3139 0.00222778C14.7111 0.00222778 14.1166 0.148706 13.578 0.429955L1.73313 7.53126C1.2296 7.87543 0.810614 8.33718 0.509673 8.87957C0.208733 9.42196 0.0341876 10.03 0 10.6549V24.8575C0.0350301 25.4815 0.209974 26.0884 0.510878 26.6297C0.811782 27.171 1.23033 27.6318 1.73313 27.9755L3.0523 28.7664L15.3167 36.4294L27.5866 28.7779L28.8892 27.9984C29.392 27.6548 29.8105 27.1939 30.1115 26.6526C30.4124 26.1113 30.5873 25.5044 30.6223 24.8804V10.6492C30.5879 10.0257 30.4138 9.4192 30.1139 8.8779C29.814 8.33661 29.3965 7.87549 28.8947 7.53126ZM8.26825 25.4135C7.85343 25.411 7.45647 25.2379 7.16435 24.932L1.30813 18.8452C1.01955 18.5389 0.857958 18.1274 0.857958 17.6989C0.857958 17.2704 1.01955 16.8589 1.30813 16.5526L7.16435 10.4371C7.29935 10.2475 7.47215 10.0904 7.67096 9.97648C7.86978 9.86255 8.08993 9.79451 8.31637 9.77699C8.54282 9.75947 8.77024 9.79289 8.98312 9.87497C9.196 9.95704 9.38931 10.0858 9.54988 10.2526C9.71045 10.4193 9.83448 10.62 9.91352 10.8411C9.99256 11.0621 10.0247 11.2983 10.0079 11.5334C9.991 11.7686 9.92548 11.9972 9.81577 12.2036C9.70606 12.4101 9.55474 12.5895 9.37216 12.7297L4.61433 17.6702L9.3556 22.5936C9.58184 22.8198 9.73793 23.111 9.80392 23.4299C9.86992 23.7488 9.84281 24.0808 9.72605 24.3836C9.6093 24.6864 9.40821 24.9461 9.14852 25.1296C8.88883 25.3131 8.58234 25.4119 8.26825 25.4135ZM12.8053 26.8521C12.6772 27.1337 12.475 27.3719 12.222 27.5393C11.9691 27.7066 11.6757 27.7962 11.3757 27.7978C11.1096 27.7981 10.8477 27.7285 10.6143 27.5955C10.381 27.4625 10.1839 27.2704 10.0412 27.0371C9.89856 26.8037 9.81505 26.5367 9.79843 26.2609C9.78182 25.985 9.83264 25.7093 9.94618 25.4593L17.9937 7.69175C18.0817 7.49681 18.2059 7.32178 18.3591 7.17668C18.5123 7.03157 18.6915 6.91922 18.8866 6.84604C19.0816 6.77286 19.2886 6.74028 19.4957 6.75017C19.7029 6.76005 19.9061 6.81222 20.0938 6.90367C20.2816 6.99512 20.4501 7.12407 20.5899 7.28316C20.7296 7.44224 20.8378 7.62835 20.9083 7.83086C20.9787 8.03337 21.0101 8.24831 21.0006 8.46341C20.9911 8.67851 20.9408 8.88955 20.8528 9.08449L12.8053 26.8521ZM29.3308 18.828L23.458 24.9263C23.323 25.1159 23.1502 25.273 22.9514 25.3869C22.7525 25.5009 22.5324 25.5689 22.306 25.5864C22.0795 25.604 21.8521 25.5705 21.6392 25.4885C21.4263 25.4064 21.233 25.2776 21.0725 25.1108C20.9119 24.9441 20.7879 24.7434 20.7088 24.5223C20.6298 24.3013 20.5976 24.0651 20.6145 23.83C20.6313 23.5948 20.6969 23.3662 20.8066 23.1598C20.9163 22.9533 21.0676 22.7739 21.2502 22.6337L26.008 17.6932L21.2391 12.7297C20.9506 12.4234 20.789 12.0119 20.789 11.5834C20.789 11.1549 20.9506 10.7434 21.2391 10.4371C21.5386 10.1466 21.9332 9.98505 22.343 9.98505C22.7529 9.98505 23.1474 10.1466 23.4469 10.4371L29.3087 16.5182C29.6069 16.8225 29.7767 17.2371 29.7808 17.6712C29.785 18.1053 29.6231 18.5234 29.3308 18.8337V18.828Z" fill="#4367B1"/>
<g style="mix-blend-mode:multiply">
<path d="M38.7314 35.988L39.587 34.2342C39.6401 34.1104 39.6493 33.9711 39.6129 33.841C39.5765 33.7109 39.4969 33.5984 39.3883 33.5234L37.5558 32.3772C37.68 31.7846 37.7246 31.177 37.6883 30.5717L39.6698 29.7349C39.7876 29.6776 39.8821 29.5788 39.9367 29.4561C39.9912 29.3334 40.0022 29.1947 39.9678 29.0644L39.3772 27.1959C39.3313 27.0687 39.2434 26.9626 39.1292 26.8965C39.015 26.8304 38.8818 26.8085 38.7535 26.8348L36.6782 27.3736C36.3623 26.8626 35.9796 26.3997 35.5412 25.998L36.3691 23.9519C36.4133 23.8244 36.4126 23.6849 36.3671 23.5579C36.3216 23.431 36.2344 23.3248 36.1207 23.2584L34.4317 22.37C34.3126 22.3148 34.1784 22.3053 34.0532 22.3431C33.9279 22.3808 33.8195 22.4635 33.7473 22.5763L32.6434 24.4792C32.0727 24.3509 31.4876 24.3046 30.9048 24.3416L30.0989 22.284C30.0437 22.1616 29.9486 22.0635 29.8304 22.0069C29.7123 21.9502 29.5786 21.9388 29.4531 21.9745L27.6538 22.5878C27.5313 22.6355 27.4291 22.7267 27.3654 22.8454C27.3018 22.964 27.2807 23.1022 27.306 23.2354L27.8249 25.3905C27.3328 25.7184 26.887 26.1158 26.5002 26.5712L24.5297 25.7114C24.407 25.6656 24.2726 25.6663 24.1503 25.7135C24.0281 25.7607 23.9259 25.8514 23.8618 25.9694L23.0063 27.7232C22.9532 27.8469 22.944 27.9862 22.9804 28.1163C23.0168 28.2464 23.0964 28.3589 23.205 28.4339L25.0375 29.5802C24.9134 30.1728 24.8688 30.7803 24.905 31.3856L22.929 32.2167C22.8112 32.274 22.7167 32.3728 22.6621 32.4955C22.6076 32.6182 22.5966 32.7569 22.631 32.8873L23.2216 34.7557C23.2675 34.8829 23.3554 34.989 23.4696 35.0551C23.5839 35.1212 23.717 35.1431 23.8453 35.1168L25.9206 34.578C26.2365 35.089 26.6191 35.552 27.0576 35.9536L26.2297 37.9997C26.1855 38.1272 26.1862 38.2667 26.2317 38.3937C26.2772 38.5206 26.3645 38.6268 26.4781 38.6932L28.1671 39.5816C28.2862 39.6368 28.4204 39.6463 28.5456 39.6085C28.6709 39.5708 28.7793 39.4881 28.8515 39.3753L29.9554 37.4724C30.5261 37.6009 31.1112 37.6472 31.6941 37.61L32.4999 39.6676C32.5504 39.794 32.6449 39.8961 32.7645 39.9534C32.8842 40.0108 33.0203 40.0192 33.1457 39.9771L34.9451 39.3638C35.0675 39.3162 35.1697 39.2249 35.2334 39.1063C35.297 38.9876 35.3181 38.8494 35.2928 38.7162L34.7629 36.5611C35.255 36.2332 35.7009 35.8359 36.0876 35.3805L38.0746 36.2287C38.1941 36.2731 38.3246 36.2734 38.4442 36.2295C38.5638 36.1857 38.6653 36.1004 38.7314 35.988ZM33.4327 32.0906C33.1833 32.6032 32.7705 33.0101 32.2646 33.242C31.7586 33.4739 31.1909 33.5165 30.6581 33.3623C30.1253 33.2082 29.6605 32.867 29.3429 32.3969C29.0253 31.9268 28.8745 31.3568 28.9163 30.7842C28.9581 30.2115 29.1898 29.6717 29.572 29.2566C29.9542 28.8415 30.4632 28.5769 31.0123 28.5079C31.5613 28.4389 32.1164 28.5697 32.5829 28.8781C33.0495 29.1866 33.3985 29.6534 33.5707 30.1992C33.6683 30.5087 33.7059 30.8352 33.6812 31.1598C33.6566 31.4844 33.5703 31.8008 33.4272 32.0906H33.4327Z" fill="#F0546A"/>
</g>
</g>
<defs>
<clipPath id="clip0_20_715">
<rect width="40" height="40" fill="white"/>
</clipPath>
</defs>
</svg>
