<svg width="30" height="30" viewBox="0 0 34 40" fill="none" xmlns="http://www.w3.org/2000/svg">
<g clip-path="url(#clip0_20_720)">
<path d="M24.5957 4.69287V34.1909C24.5957 37.4941 26.8736 39.3307 29.2913 39.3307C31.5272 39.3307 33.9868 37.7664 33.9868 34.1909V4.91634C33.9868 1.89251 31.7508 0 29.2913 0C26.8317 0 24.5957 2.08805 24.5957 4.69287Z" fill="#F8AB00"/>
<path d="M12.2988 19.6654V34.1909C12.2988 37.4941 14.5767 39.3307 16.9944 39.3307C19.2304 39.3307 21.6899 37.7664 21.6899 34.1909V19.8888C21.6899 16.865 19.454 14.9725 16.9944 14.9725C14.5348 14.9725 12.2988 17.0605 12.2988 19.6654Z" fill="#E37300"/>
<path d="M9.39111 34.6379C9.39111 37.2287 7.28789 39.3308 4.69555 39.3308C2.10322 39.3308 0 37.2287 0 34.6379C0 32.047 2.10322 29.945 4.69555 29.945C7.28789 29.945 9.39111 32.047 9.39111 34.6379Z" fill="#E37300"/>
</g>
<defs>
<clipPath id="clip0_20_720">
<rect width="34" height="40" fill="white"/>
</clipPath>
</defs>
</svg>
