<svg width="20" height="20" viewBox="0 0 18 21" fill="none" xmlns="http://www.w3.org/2000/svg">
<path d="M7.15029 4.49945C7.00661 4.49956 6.86769 4.54863 6.75848 4.63784C6.64927 4.72705 6.57692 4.85056 6.55445 4.98616L5.56445 10.9861C5.61061 10.7059 5.86329 10.4994 6.16027 10.4994H9.06131C11.981 10.4994 14.4585 8.46417 14.9112 5.70608C14.9449 5.50017 14.9639 5.29232 14.9683 5.08395C14.2263 4.71218 13.3547 4.49945 12.3997 4.49945H7.15029Z" fill="#A3D3FF"/>
<path d="M14.9685 5.08417C14.9642 5.29254 14.9451 5.50039 14.9114 5.70631C14.4587 8.46439 11.981 10.4997 9.06154 10.4997H6.1605C5.86376 10.4997 5.61084 10.7059 5.56469 10.9864L4.65439 16.4999L4.08421 19.9587C4.07308 20.0255 4.07725 20.0939 4.09645 20.159C4.11564 20.2241 4.1494 20.2845 4.19539 20.336C4.24137 20.3874 4.29849 20.4287 4.3628 20.4571C4.42712 20.4854 4.4971 20.5 4.56791 20.5H7.71674C7.86042 20.4999 7.99934 20.4508 8.10855 20.3616C8.21776 20.2724 8.2901 20.1489 8.31256 20.0133L9.14196 14.9865C9.16444 14.8508 9.23685 14.7273 9.34616 14.638C9.45546 14.5488 9.5945 14.4998 9.73826 14.4998H11.5922C14.5119 14.4998 16.9893 12.4645 17.442 9.70644C17.7635 7.74892 16.7318 5.96759 14.9685 5.08417Z" fill="#DAEDFF"/>
<path d="M3.57286 0.5C3.27611 0.5 3.0232 0.706266 2.97704 0.986262L0.506081 15.9586C0.459227 16.2428 0.689078 16.4999 0.990254 16.4999H4.65449L5.56431 10.9864L6.55432 4.9864C6.57678 4.85079 6.64913 4.72729 6.75834 4.63808C6.86755 4.54887 7.00647 4.4998 7.15015 4.49969H12.3995C13.3548 4.49969 14.2262 4.71264 14.9682 5.08418C15.019 2.57313 12.8506 0.5 9.86936 0.5H3.57286Z" fill="#C6E1FC"/>
</svg>
