<svg width="20" height="20" viewBox="0 0 20 21" fill="none" xmlns="http://www.w3.org/2000/svg">
<g clip-path="url(#clip0_207_486)">
<path fill-rule="evenodd" clip-rule="evenodd" d="M43.2275 5.79375L43.0387 4.8975H40.4163V15.525H43.4463V8.3125C44.1631 7.375 45.3725 7.5575 45.7575 7.67687V4.89875C45.3537 4.75375 43.9369 4.4875 43.2275 5.7925V5.79375ZM37.1462 2.265L34.1863 2.89375L34.1738 12.62C34.1738 14.4137 35.5225 15.7406 37.3225 15.7406C38.3131 15.7406 39.045 15.5519 39.4506 15.3387V12.87C39.0619 13.025 37.1488 13.5813 37.1488 11.795V7.4825H39.4506V4.89687H37.1488L37.1462 2.265ZM28.9375 7.98125C28.9375 7.5075 29.3313 7.325 29.9675 7.325C31.0207 7.3478 32.0542 7.61526 32.9862 8.10625V5.25C32.0252 4.87212 31.0001 4.68366 29.9675 4.695C27.515 4.695 25.8694 5.98 25.8694 8.125C25.8694 11.4812 30.4787 10.9362 30.4787 12.3831C30.4787 12.9494 29.9912 13.1244 29.3144 13.1244C28.3106 13.1244 27.0144 12.7094 25.9975 12.1556V15.0494C27.0443 15.5047 28.1728 15.7422 29.3144 15.7475C31.835 15.7475 33.5725 14.5025 33.5725 12.3194C33.5725 8.69687 28.9369 9.34437 28.9369 7.98L28.9375 7.98125ZM8.675 6.44687C8.675 5.59062 9.3875 5.25937 10.5387 5.25937C12.4441 5.30054 14.3138 5.78433 16 6.6725V1.50375C14.2613 0.820445 12.4068 0.479817 10.5387 0.500624C6.10125 0.500624 3.125 2.825 3.125 6.70625C3.125 12.7787 11.4637 11.7925 11.4637 14.41C11.4637 15.4338 10.5887 15.7512 9.3575 15.7512C7.54187 15.7512 5.19688 15 3.3575 14V19.2362C5.25126 20.0602 7.29289 20.4902 9.35812 20.5C13.9187 20.5 17.0625 18.2469 17.0625 14.2981C17.0625 7.74437 8.675 8.915 8.675 6.44812V6.44687Z" fill="#DAEDFF"/>
</g>
<defs>
<clipPath id="clip0_207_486">
<rect width="20" height="20" fill="white" transform="translate(0 0.5)"/>
</clipPath>
</defs>
</svg>
